<svg xmlns="http://www.w3.org/2000/svg" viewBox="0 0 1024 1024" width="1024" height="1024">
  <path d="M 574 590 L 565 590 L 557 593 L 548 594 L 542 597 L 541 600 L 541 630 L 544 633 L 575 633 L 578 630 L 578 595 Z" fill="black" fill-rule="evenodd"/>
  <path d="M 448 590 L 445 593 L 444 596 L 444 629 L 447 633 L 477 633 L 481 628 L 481 599 L 478 595 L 457 590 Z" fill="black" fill-rule="evenodd"/>
  <path d="M 580 497 L 577 501 L 577 522 L 579 525 L 603 525 L 605 522 L 605 500 L 603 497 Z" fill="black" fill-rule="evenodd"/>
  <path d="M 421 497 L 418 500 L 418 522 L 419 524 L 427 526 L 443 525 L 445 523 L 445 500 L 444 498 L 442 497 Z" fill="black" fill-rule="evenodd"/>
  <path d="M 440 238 L 440 265 L 445 274 L 457 312 L 565 312 L 574 285 L 576 275 L 581 266 L 581 237 L 580 235 L 578 234 L 558 234 L 556 236 L 555 240 L 555 263 L 556 268 L 560 275 L 560 286 L 558 289 L 519 289 L 518 288 L 519 273 L 523 267 L 523 237 L 520 234 L 501 234 L 499 236 L 498 240 L 498 266 L 502 273 L 502 281 L 503 282 L 503 288 L 502 289 L 463 289 L 462 288 L 462 273 L 466 266 L 466 237 L 463 234 L 443 234 Z" fill="black" fill-rule="evenodd"/>
  <path d="M 318 172 L 314 176 L 309 189 L 308 200 L 307 201 L 307 215 L 306 216 L 306 233 L 307 234 L 308 256 L 316 292 L 325 317 L 345 356 L 367 386 L 389 409 L 389 413 L 385 418 L 374 440 L 367 460 L 362 480 L 360 499 L 359 500 L 359 503 L 361 503 L 374 494 L 377 494 L 379 501 L 379 524 L 378 525 L 378 532 L 377 533 L 375 553 L 372 568 L 372 585 L 371 586 L 374 608 L 377 616 L 385 630 L 392 638 L 403 647 L 404 660 L 406 666 L 411 674 L 416 679 L 424 684 L 432 686 L 435 689 L 442 702 L 453 713 L 457 715 L 458 718 L 457 719 L 319 719 L 318 718 L 313 718 L 301 712 L 294 705 L 289 696 L 287 689 L 287 353 L 293 340 L 300 333 L 311 328 L 311 324 L 305 311 L 302 301 L 292 303 L 277 312 L 268 322 L 263 331 L 259 347 L 259 401 L 258 402 L 247 402 L 244 401 L 239 396 L 207 396 L 204 399 L 204 420 L 207 423 L 240 423 L 245 418 L 258 418 L 259 419 L 259 457 L 258 458 L 245 458 L 242 456 L 242 454 L 240 452 L 207 452 L 204 454 L 204 476 L 207 479 L 240 479 L 245 474 L 258 474 L 259 475 L 259 513 L 258 514 L 245 514 L 240 508 L 206 508 L 204 510 L 204 532 L 206 534 L 241 534 L 244 530 L 258 530 L 259 531 L 259 569 L 258 570 L 247 570 L 244 569 L 240 564 L 207 564 L 204 567 L 204 588 L 207 591 L 240 591 L 245 586 L 258 586 L 259 587 L 259 624 L 258 625 L 244 625 L 240 620 L 206 620 L 204 623 L 204 644 L 205 646 L 208 647 L 239 647 L 244 642 L 258 642 L 259 643 L 259 697 L 262 712 L 269 725 L 275 732 L 288 741 L 302 745 L 363 745 L 364 746 L 364 756 L 359 762 L 359 796 L 363 799 L 383 799 L 387 795 L 387 762 L 382 758 L 381 755 L 381 747 L 383 745 L 418 745 L 419 746 L 419 756 L 414 762 L 414 795 L 418 799 L 438 799 L 442 795 L 442 763 L 437 758 L 436 755 L 436 747 L 438 745 L 474 745 L 475 746 L 475 756 L 470 761 L 470 796 L 474 799 L 494 799 L 498 795 L 498 762 L 493 757 L 492 747 L 494 745 L 529 745 L 530 746 L 530 757 L 525 762 L 525 795 L 529 799 L 549 799 L 553 795 L 553 762 L 548 757 L 548 746 L 549 745 L 584 745 L 586 747 L 585 758 L 581 761 L 581 796 L 585 799 L 605 799 L 609 794 L 609 764 L 608 761 L 603 756 L 603 746 L 604 745 L 640 745 L 641 746 L 641 756 L 636 762 L 636 795 L 639 799 L 660 799 L 662 798 L 664 795 L 664 762 L 659 757 L 659 746 L 660 745 L 719 745 L 731 742 L 742 736 L 755 723 L 760 713 L 763 700 L 763 643 L 764 642 L 778 642 L 781 646 L 784 647 L 815 647 L 818 644 L 818 622 L 816 620 L 781 620 L 778 625 L 764 625 L 763 624 L 763 587 L 764 586 L 778 586 L 781 590 L 784 591 L 815 591 L 818 588 L 818 567 L 816 564 L 782 564 L 778 569 L 775 570 L 764 570 L 763 569 L 763 531 L 764 530 L 778 530 L 781 534 L 816 534 L 818 532 L 818 510 L 816 508 L 781 508 L 779 512 L 775 514 L 764 514 L 763 513 L 763 475 L 764 474 L 778 474 L 783 479 L 815 479 L 818 477 L 818 454 L 816 452 L 782 452 L 776 458 L 765 458 L 763 456 L 763 419 L 764 418 L 777 418 L 781 423 L 815 423 L 818 421 L 818 398 L 815 396 L 782 396 L 780 397 L 778 401 L 764 402 L 763 401 L 763 344 L 758 328 L 752 319 L 741 309 L 729 303 L 721 301 L 711 325 L 711 328 L 721 332 L 729 339 L 734 347 L 736 354 L 736 687 L 735 692 L 729 704 L 722 711 L 716 715 L 702 719 L 565 719 L 564 718 L 564 716 L 575 707 L 585 694 L 588 687 L 601 682 L 612 673 L 618 662 L 620 646 L 626 642 L 638 629 L 646 615 L 649 606 L 651 596 L 651 573 L 650 572 L 650 565 L 649 564 L 645 528 L 644 527 L 644 519 L 643 518 L 645 495 L 649 494 L 661 503 L 663 503 L 663 497 L 662 496 L 662 490 L 659 474 L 652 450 L 647 437 L 639 421 L 634 414 L 633 410 L 653 390 L 676 359 L 692 330 L 704 300 L 712 270 L 714 251 L 715 250 L 715 240 L 716 239 L 715 202 L 711 183 L 707 175 L 700 170 L 693 170 L 678 176 L 659 190 L 641 208 L 626 227 L 609 253 L 594 282 L 579 320 L 570 349 L 567 364 L 565 366 L 562 366 L 549 361 L 544 361 L 541 359 L 547 345 L 547 340 L 543 340 L 529 344 L 515 351 L 510 355 L 506 356 L 505 353 L 513 336 L 515 334 L 515 332 L 511 332 L 489 342 L 472 355 L 460 368 L 458 368 L 456 366 L 446 329 L 444 326 L 433 294 L 418 262 L 400 232 L 379 205 L 365 191 L 351 180 L 336 172 L 329 170 L 323 170 Z M 457 686 L 458 685 L 463 685 L 477 688 L 498 689 L 499 690 L 538 689 L 539 688 L 553 687 L 559 685 L 564 685 L 565 688 L 556 697 L 540 705 L 522 709 L 499 709 L 484 706 L 474 702 L 465 696 L 457 688 Z M 425 582 L 440 568 L 449 562 L 465 554 L 474 551 L 499 546 L 524 546 L 549 551 L 564 557 L 581 567 L 601 587 L 604 594 L 604 622 L 603 623 L 603 633 L 602 634 L 601 647 L 598 654 L 590 662 L 585 665 L 564 672 L 548 674 L 547 675 L 526 676 L 525 677 L 495 677 L 494 676 L 475 675 L 454 671 L 436 664 L 424 652 L 421 640 L 420 621 L 419 620 L 419 593 Z M 628 480 L 623 509 L 618 528 L 615 534 L 575 534 L 568 532 L 568 498 L 576 489 L 588 480 L 604 474 L 614 474 L 621 476 Z M 395 480 L 404 475 L 418 474 L 428 477 L 444 487 L 455 499 L 455 533 L 454 534 L 408 534 L 405 530 L 400 510 L 398 496 L 396 491 Z M 679 214 L 680 215 L 680 236 L 679 237 L 678 256 L 673 280 L 664 307 L 651 334 L 636 358 L 621 377 L 611 387 L 608 387 L 598 377 L 598 373 L 609 329 L 623 290 L 637 263 L 650 243 L 660 230 L 676 214 Z M 344 214 L 346 214 L 358 225 L 374 245 L 392 275 L 403 299 L 412 324 L 412 327 L 414 330 L 425 376 L 414 388 L 412 388 L 404 380 L 383 353 L 367 326 L 360 311 L 350 282 L 345 258 L 344 241 L 343 240 L 343 215 Z" fill="black" fill-rule="evenodd"/>
</svg>
